{"title":"The Corridor (2010) DVDRip XviD AC3 Soup","uid":11498482,"size":1484855940,"categoryP":"video","categoryS":"movies","magnet":"?xt=urn:btih:c48cfe6430055477770ccb89f0354bd4835d7425&amp;dn=The+Corridor+%282010%29+DVDRip+XviD+AC3+Soup&amp;tr=udp%3A%2F%2Ftracker.openbittorrent.com%3A80&amp;tr=udp%3A%2F%2Fopen.demonii.com%3A1337&amp;tr=udp%3A%2F%2Ftracker.coppersurfer.tk%3A6969&amp;tr=udp%3A%2F%2Fexodus.desync.com%3A6969","seeders":6,"leechers":1,"uploader":"peaSoup","files":-1,"time":1416316328,"description":"Storyline\n\nA group of high school friends reunite years later for a weekend of partying and catching up on old times. Isolated deep in the snow covered forest, they stumble upon a mysterious corridor of light. Like a drug, the corridor's energy consumes them, driving them to the point of madness. One by one, they turn on each other, taking their evil to the next level. Mayhem leads to murder as they race to outlast each other, and the corridor's supernatural powers.                                 &lt;a href=&quot; http://i.imgur.com/5Qu9AQh.jpg&quot; rel=&quot;nofollow&quot; target=&quot;_NEW&quot;&gt; http://i.imgur.com/5Qu9AQh.jpg&lt;/a&gt;                                                      &lt;a href=&quot; http://i.imgur.com/yW45PaF.jpg&quot; rel=&quot;nofollow&quot; target=&quot;_NEW&quot;&gt; http://i.imgur.com/yW45PaF.jpg&lt;/a&gt;                                                      &lt;a href=&quot; http://i.imgur.com/gmzVhfF.jpg&quot; rel=&quot;nofollow&quot; target=&quot;_NEW&quot;&gt; http://i.imgur.com/gmzVhfF.jpg&lt;/a&gt;                                                      &lt;a href=&quot; http://i.imgur.com/npS9lkA.jpg&quot; rel=&quot;nofollow&quot; target=&quot;_NEW&quot;&gt; http://i.imgur.com/npS9lkA.jpg&lt;/a&gt;                                                       \nFormat                                   : AVI\nFormat/Info                              : Audio Video Interleave\nFormat profile                           : OpenDML\nFile size                                : 1.38 GiB\nDuration                                 : 1h 34mn\nOverall bit rate                         : 2 093 Kbps\nMovie name                               : The Corridor (2010) DVDRip XviD AC3 Soup\nWriting application                      : Lavf55.33.100\nOriginal source form/Name                : THECORRIDOR\n\nVideo\nID                                       : 0\nFormat                                   : MPEG-4 Visual\nFormat profile                           : Advanced Simple@L5\nFormat settings, BVOP                    : 2\nFormat settings, QPel                    : No\nFormat settings, GMC                     : No warppoints\nFormat settings, Matrix                  : Default (MPEG)\nMuxing mode                              : Packed bitstream\nCodec ID                                 : XVID\nCodec ID/Hint                            : XviD\nDuration                                 : 1h 34mn\nBit rate                                 : 1 633 Kbps\nWidth                                    : 720 pixels\nHeight                                   : 304 pixels\nDisplay aspect ratio                     : 2.35:1\nFrame rate                               : 25.000 fps\nColor space                              : YUV\nChroma subsampling                       : 4:2:0\nBit depth                                : 8 bits\nScan type                                : Progressive\nCompression mode                         : Lossy\nBits/(Pixel*Frame)                       : 0.298\nStream size                              : 1.08 GiB (78%)\nWriting library                          : XviD 64\n\nAudio\nID                                       : 1\nFormat                                   : AC-3\nFormat/Info                              : Audio Coding 3\nMode extension                           : CM (complete main)\nFormat settings, Endianness              : Big\nCodec ID                                 : 2000\nDuration                                 : 1h 34mn\nBit rate mode                            : Constant\nBit rate                                 : 448 Kbps\nChannel(s)                               : 6 channels\nChannel positions                        : Front: L C R, Side: L R, LFE\nSampling rate                            : 48.0 KHz\nBit depth                                : 16 bits\nCompression mode                         : Lossy\nStream size                              : 303 MiB (21%)\nAlignment                                : Aligned on interleaves\nInterleave, duration                     : 32 ms (0.80 video frame)","torrent":{"xt":"urn:btih:c48cfe6430055477770ccb89f0354bd4835d7425","amp;dn":"The+Corridor+%282010%29+DVDRip+XviD+AC3+Soup","amp;tr":["udp%3A%2F%2Ftracker.openbittorrent.com%3A80","udp%3A%2F%2Fopen.demonii.com%3A1337","udp%3A%2F%2Ftracker.coppersurfer.tk%3A6969","udp%3A%2F%2Fexodus.desync.com%3A6969"],"infoHash":"c48cfe6430055477770ccb89f0354bd4835d7425","infoHashBuffer":{"type":"Buffer","data":[196,140,254,100,48,5,84,119,119,12,203,137,240,53,75,212,131,93,116,37]},"announce":[],"urlList":[]}}